<svg id="Layer_1" data-name="Layer 1" xmlns="http://www.w3.org/2000/svg" viewBox="0 0 1044 166"><defs><style>.cls-1{fill:#f99f6f;}</style></defs><path d="M67.21,63.88c-1,5.16-4.32,17.88-5.4,21.12H2.29V80.56C12.85,79.84,13.81,79,13.81,68.92V23.2c0-10.08-1.2-11-10.2-11.76V7H41.05v4.44c-9.36.84-10.56,1.68-10.56,11.76V69.76c0,6.6.24,9.6,6.84,9.72.24.12,5.76.12,6.24.12,6.84,0,8.64-1.44,11.52-4.68,2.28-2.4,5.4-7.56,7.56-12.48Z"/><path d="M147.6,64.6c-.59,3.24-3.95,17-5,20.4H80.29V80.68C91.21,79.6,91.93,79,91.93,68.92V23.08c0-10.2-1.44-10.92-9.6-11.64V7h39c12.6,0,16.8-.12,18.48-.24.12,2.16.72,12,1.2,19.44l-4.68.6c-1.08-4.08-3.12-9-5.16-11.16-2.16-2.4-3.72-3.12-9.84-3.12h-7.8c-4.56,0-5,.24-5,4.32V41.92h11.76c6.72,0,7.92-1.8,9.72-10.32h4.68V58.36H130C128.05,49.48,127.09,48,120.13,48H108.49V68.68c0,8.28.24,10.8,7.68,10.92h8.52c6.72,0,8.52-.84,11.16-4.08a53.42,53.42,0,0,0,7.32-12Z"/><path d="M228.36,85V80.56c9.12-1,9.72-1.8,9.72-12.6L238,21.16C229.32,41.8,219.84,64.6,211.2,85h-4c-7.8-19.56-16.32-41.88-25-62.88-1.56,37.68-1.56,45.12-1.56,49.44.12,6.48,2.52,8.16,11.52,9V85H162.48V80.56c6.84-.6,10-1.92,10.92-9.12.49-3.6,1-10.44,3.72-50,.36-5.76-.47-9-10.8-10V7h25.92L215.4,59.92,238.68,7H264v4.44c-9.6,1-10.68,1.92-10.44,11.52l1,45c.12,10.8.6,11.28,10.32,12.6V85Z"/><path d="M325.56,5.32c22.2,0,40.32,16.2,40.32,39.84,0,25.56-18.24,41.64-40.92,41.64-24,0-41.4-17.52-41.4-40.68C283.56,25.6,298.2,5.32,325.56,5.32Zm-1.8,5.28c-12.24,0-21.24,12-21.24,33.24,0,20.28,8,37.68,24.24,37.68,11.4,0,20.28-11,20.28-33C347,24.76,337.68,10.6,323.76,10.6Z"/><path d="M468.84,11.44c-7.32,1-9.6,2.52-10,7.92-.36,4.68-.72,8.76-.72,19.2V86.32H451.4l-50-60V53.44A179.63,179.63,0,0,0,402,72c.48,5.28,3,8,11.88,8.52V85H384.12V80.56c6.84-.6,9.84-2.4,10.56-8,.48-4.32.72-8.64.72-19.08V25c0-4-.24-6.6-2.52-9.72s-5-3.36-10.08-3.84V7h23.4l45.72,53.16V38.56c0-10.44-.12-14.4-.48-18.84-.36-5.16-2.28-7.68-12.24-8.28V7h29.64Z"/><path d="M601.92,38.2c-7.92.72-9,2.28-13.2,7.8-3.48,4.32-6.84,8.76-10.56,13.92a156,156,0,0,1,21.48,25.32l-.6,1.44c-12,.12-19.44-2.76-21-4.2s-5.52-5.4-9.84-9.84c-7.56,9.72-14.88,14-23.52,14-16.8,0-25-11.88-25-22.32,0-10.08,5.4-14.4,17.16-21.48-4.8-4.68-8.28-10-8.28-17.28,0-10.8,9.24-20.16,22-20.16,12.24,0,20.16,7.56,20.16,17.4A12.25,12.25,0,0,1,565.44,33q-4.71,3.3-9.72,6.12c3.36,2.76,10.44,9.24,18.84,17.16,2-3.12,4.44-6.24,6.12-10.08,2.52-5.28,2.28-7.2-6.48-8V33.64h27.72ZM550.44,75.64A19.34,19.34,0,0,0,564.6,68.8a318.43,318.43,0,0,0-24.36-22.68c-4,3.48-5.4,7.08-5.4,12.72C534.84,70.24,542.4,75.64,550.44,75.64Zm-1-65.28c-4.92,0-8.16,4.56-8.16,10.08,0,6,2.64,9.48,10.68,15.72,4-3.12,6.72-6.72,6.72-13.92,0-6.12-2.84-11.88-9.2-11.88Z"/><path d="M717.12,63.88c-1,5.16-4.32,17.88-5.4,21.12H652.2V80.56c10.56-.72,11.52-1.56,11.52-11.64V23.2c0-10.08-1.2-11-10.2-11.76V7H691v4.44c-9.36.84-10.56,1.68-10.56,11.76V69.76c0,6.6.24,9.6,6.84,9.72.24.12,5.76.12,6.24.12,6.84,0,8.64-1.44,11.52-4.68,2.28-2.4,5.4-7.56,7.56-12.48Z"/><path d="M731.64,85V80.56c9.12-.84,10.2-1.56,10.2-11.64V23.2c0-10.08-1.2-11-10.2-11.76V7h37.08v4.44c-9,.84-10.2,1.68-10.2,11.76V68.92c0,10,1.08,10.68,10.2,11.64V85Z"/><path d="M851.27,85V80.56c9.12-1,9.72-1.8,9.72-12.6l-.12-46.8C852.23,41.8,842.75,64.6,834.11,85h-4c-7.8-19.56-16.32-41.88-25-62.88-1.55,37.68-1.55,45.12-1.55,49.44.12,6.48,2.51,8.16,11.51,9V85H785.4V80.56c6.84-.6,10-1.92,10.92-9.12.48-3.6,1-10.44,3.72-50,.36-5.76-.48-9-10.8-10V7h25.91l23.16,52.92L861.59,7h25.32v4.44c-9.6,1-10.68,1.92-10.44,11.52l1,45c.12,10.8.6,11.28,10.32,12.6V85Z"/><path d="M971.39,64.6c-.6,3.24-4,17-5,20.4H904.07V80.68C915,79.6,915.71,79,915.71,68.92V23.08c0-10.2-1.44-10.92-9.6-11.64V7h39c12.6,0,16.8-.12,18.48-.24.12,2.16.72,12,1.2,19.44l-4.68.6C959,22.72,957,17.8,955,15.64c-2.16-2.4-3.72-3.12-9.84-3.12h-7.8c-4.56,0-5,.24-5,4.32V41.92H944c6.72,0,7.92-1.8,9.72-10.32h4.68V58.36h-4.68C951.83,49.48,950.87,48,943.91,48H932.27V68.68c0,8.28.24,10.8,7.68,10.92h8.52c6.72,0,8.52-.84,11.16-4.08a53.42,53.42,0,0,0,7.32-12Z"/><path d="M1034,26.8c-2.4-7.68-5.76-16.44-16.8-16.44-7,0-11.52,4.92-11.52,11.64s4.44,10.56,15,15.84c12.84,6.36,21,12.6,21,24.48,0,14.16-11.76,24.48-28.92,24.48-7.68,0-14.52-2-20.16-3.72-.72-2.76-2.76-15.24-3.6-20.88l4.68-1.08c2.4,7.56,9.12,20.64,20.88,20.64,7.32,0,11.76-4.56,11.76-12.24,0-7-4.32-11-14.4-16.44-12.48-6.72-20.64-12.72-20.64-25.2s9.84-22.56,27.84-22.56c8.28,0,14.52,1.8,17.16,2.16.48,4.44,1.32,10.68,2.28,18.24Z"/><circle class="cls-1" cx="238.14" cy="149.77" r="4"/><circle class="cls-1" cx="805.86" cy="149.77" r="4"/><path d="M275.85,142.75H269.3v16.57h-3.16V142.75h-6v-2.47h15.23Z"/><path d="M290,159.32V151h-8v8.28h-3.11v-19l3.11-.14v8.38h8v-8.24h3.11v19Z"/><path d="M298.34,159.32v-19h11l.45,2.44h-8.37v5.68h6.38l.45,2.52h-6.83v6h9.1l.47,2.43Z"/><path d="M328.83,140.28l7.39,18.85-3.13.42-1.85-5h-7.53l-1.77,4.81h-3.13l7.28-19Zm-1.43,4.26L324.6,152h5.66Z"/><path d="M344.93,140.28a11.12,11.12,0,0,1,3.75.6,5.7,5.7,0,0,1,2.65,1.88,5.31,5.31,0,0,1,1,3.29,5.09,5.09,0,0,1-.92,3.07A5.78,5.78,0,0,1,349,151l4.7,8.28h-3.36l-4.14-7.47h-3.84v7.45h-3.1v-19Zm-2.58,2.66v6.39h2.47A6.21,6.21,0,0,0,347,149a3.21,3.21,0,0,0,1.48-1,2.8,2.8,0,0,0,.56-1.85,3.22,3.22,0,0,0-.49-1.91,2.6,2.6,0,0,0-1.43-1,7.44,7.44,0,0,0-2.2-.3Z"/><path d="M370.27,142.75h-6.55v16.57h-3.17V142.75h-6v-2.47h15.23Z"/><path d="M387.8,140.28l7.39,18.85-3.14.42-1.84-5h-7.54l-1.76,4.81h-3.14l7.28-19Zm-1.43,4.26-2.8,7.45h5.66Z"/><path d="M398.21,159.32v-19h3l8.07,11.54,1.28,1.9V140.28h3.2v19h-3l-8.45-12.09-.93-1.4v13.49Z"/><path d="M418.9,159.32v-19h7a8.72,8.72,0,0,1,4.86,1.24,7.57,7.57,0,0,1,2.83,3.35,12.93,12.93,0,0,1-.07,9.85,7.69,7.69,0,0,1-2.94,3.37,9,9,0,0,1-4.73,1.23Zm3.1-16.38v13.72h3.81a5.46,5.46,0,0,0,2.9-.74,5,5,0,0,0,1.92-2.28,9.73,9.73,0,0,0,.7-3.92,10,10,0,0,0-.58-3.59,5,5,0,0,0-1.72-2.35,4.86,4.86,0,0,0-3-.84Z"/><path d="M444.67,155.66c.37.16.82.35,1.34.55a11.24,11.24,0,0,0,1.68.52,7,7,0,0,0,1.71.21,6.55,6.55,0,0,0,2.11-.28,2.49,2.49,0,0,0,1.26-.85,2.1,2.1,0,0,0,.44-1.3,2,2,0,0,0-.58-1.4A7,7,0,0,0,451.1,152c-.63-.36-1.36-.74-2.18-1.13a19.52,19.52,0,0,1-2.08-1.18,8.61,8.61,0,0,1-1.7-1.3,5.48,5.48,0,0,1-1.12-1.57,4.61,4.61,0,0,1-.39-1.94,4.49,4.49,0,0,1,.76-2.56,5,5,0,0,1,2.19-1.8,8.23,8.23,0,0,1,3.43-.66,9.84,9.84,0,0,1,2.8.42,17.14,17.14,0,0,1,2.41.93l-1,2.49c-.36-.18-.74-.36-1.14-.52a10,10,0,0,0-1.32-.4,6.48,6.48,0,0,0-1.58-.17,4.7,4.7,0,0,0-2.38.56,1.82,1.82,0,0,0-.95,1.68,2.16,2.16,0,0,0,.52,1.44,4.81,4.81,0,0,0,1.5,1.15c.65.34,1.41.75,2.26,1.22s1.42.72,2.06,1.1a10,10,0,0,1,1.7,1.26,5.44,5.44,0,0,1,1.15,1.54,4.44,4.44,0,0,1,.42,2,4.53,4.53,0,0,1-.83,2.66,5.54,5.54,0,0,1-2.37,1.85,9.5,9.5,0,0,1-3.8.67,9.22,9.22,0,0,1-1.38-.14c-.52-.1-1.05-.21-1.59-.34a10.75,10.75,0,0,1-1.49-.47,3.81,3.81,0,0,1-1-.57Z"/><path d="M467.68,159.71a9,9,0,0,1-4.84-1.28,8.53,8.53,0,0,1-3.19-3.52,11.73,11.73,0,0,1,.05-10.15,9.19,9.19,0,0,1,12.87-3.62,8.85,8.85,0,0,1,3.21,3.52,11.71,11.71,0,0,1-.06,10.16,9.15,9.15,0,0,1-3.25,3.54A9,9,0,0,1,467.68,159.71Zm0-2.65a5.33,5.33,0,0,0,3.07-.9,6.37,6.37,0,0,0,2.11-2.52,10,10,0,0,0,.06-7.66,6.1,6.1,0,0,0-2.05-2.53,5.17,5.17,0,0,0-3.07-.93,5.28,5.28,0,0,0-3,.94,6.61,6.61,0,0,0-2.17,2.58,8.68,8.68,0,0,0-.8,3.82,8.9,8.9,0,0,0,.75,3.74,5.94,5.94,0,0,0,2.05,2.55,5.31,5.31,0,0,0,3,.91Z"/><path d="M483.58,152.21a5.59,5.59,0,0,0,.58,2.66,3.84,3.84,0,0,0,1.59,1.65,4.75,4.75,0,0,0,2.31.56,4.62,4.62,0,0,0,2.33-.57,4,4,0,0,0,1.57-1.67,5.69,5.69,0,0,0,.56-2.63V140.28h3.19v12.18a7.16,7.16,0,0,1-.95,3.67,6.86,6.86,0,0,1-2.65,2.56,9.17,9.17,0,0,1-8.08,0,6.65,6.65,0,0,1-2.64-2.54,7.22,7.22,0,0,1-.94-3.69V140.28h3.13Z"/><path d="M512.62,159.32h-12v-19h3.11v16.61h8.54Z"/><path d="M530.09,159.71a9,9,0,0,1-4.84-1.28,8.6,8.6,0,0,1-3.19-3.52,11.83,11.83,0,0,1,.05-10.15,9.08,9.08,0,0,1,8-4.93,8.74,8.74,0,0,1,8.08,4.83,11,11,0,0,1,1.13,5,10.75,10.75,0,0,1-1.19,5.16,9.15,9.15,0,0,1-3.25,3.54A9,9,0,0,1,530.09,159.71Zm0-2.65a5.33,5.33,0,0,0,3.07-.9,6.15,6.15,0,0,0,2.11-2.52,10,10,0,0,0,.06-7.66,6.12,6.12,0,0,0-2-2.53,5.2,5.2,0,0,0-3.08-.93,5.28,5.28,0,0,0-3,.94A6.49,6.49,0,0,0,525,146a8.68,8.68,0,0,0-.8,3.82,8.9,8.9,0,0,0,.75,3.74,6.16,6.16,0,0,0,2,2.55,5.4,5.4,0,0,0,3.06.95Z"/><path d="M552.77,151h-6.52v8.28h-3.11v-19h10.5l.5,2.44h-7.89v5.85h6.1Z"/><path d="M564.08,159.32v-19h11l.44,2.44h-8.37v5.68h6.39L574,151h-6.83v6h9.1l.48,2.43Z"/><path d="M587.91,140.28l7.39,18.85-3.13.42-1.85-5h-7.53L581,159.32h-3.13l7.28-19Zm-1.43,4.26-2.8,7.45h5.66Z"/><path d="M611.85,142.75H605.3v16.57h-3.16V142.75h-6v-2.47h15.24Z"/><path d="M614.87,159.32v-19H618v19Z"/><path d="M623.19,159.32v-19h3l8.06,11.54,1.29,1.9V140.28h3.19v19h-3l-8.46-12.09-.92-1.4v13.49Z"/><path d="M651,149.13h6.67v9.21a8.35,8.35,0,0,1-1.59.7,12.42,12.42,0,0,1-2,.49,13.27,13.27,0,0,1-2.18.18,9.5,9.5,0,0,1-5.07-1.3,8.6,8.6,0,0,1-3.26-3.53,11.45,11.45,0,0,1-.41-9,9.45,9.45,0,0,1,2.07-3.18,9.19,9.19,0,0,1,3.14-2.07,10.14,10.14,0,0,1,3.92-.73,14.54,14.54,0,0,1,1.47.11,13,13,0,0,1,1.86.38,8.74,8.74,0,0,1,1.71.69l-1,2.26c-.49-.16-.93-.3-1.32-.4a12,12,0,0,0-1.19-.25,8.41,8.41,0,0,0-1.5-.1,7.13,7.13,0,0,0-2.5.45,6.15,6.15,0,0,0-3.63,3.65,9,9,0,0,0-.53,3.21,8.39,8.39,0,0,0,.8,3.79,6.23,6.23,0,0,0,2.18,2.51,5.77,5.77,0,0,0,3.18.89,9.31,9.31,0,0,0,2.94-.42v-5.15h-4.09Z"/><path d="M676.25,140.28l7.39,18.85-3.13.42-1.85-5h-7.53l-1.77,4.81h-3.13l7.28-19Zm-1.43,4.26L672,152h5.66Z"/><path d="M686.67,159.32v-19h3l8.07,11.54,1.29,1.9V140.28h3.19v19h-3l-8.45-12.09-.93-1.4v13.49Z"/><path d="M707.36,159.32v-19h7a8.71,8.71,0,0,1,4.85,1.24,7.57,7.57,0,0,1,2.83,3.35,12.93,12.93,0,0,1-.07,9.85,7.69,7.69,0,0,1-2.94,3.37,9,9,0,0,1-4.73,1.23Zm3.11-16.38v13.72h3.8a5.46,5.46,0,0,0,2.9-.74,5,5,0,0,0,1.92-2.28,9.4,9.4,0,0,0,.7-3.92,10.19,10.19,0,0,0-.57-3.59,5.19,5.19,0,0,0-1.73-2.35,4.86,4.86,0,0,0-3-.84Z"/><path d="M745.52,159.32h-12v-19h3.11v16.61h8.54Z"/><path d="M748.57,159.32v-19h3.11v19Z"/><path d="M766.52,151H760v8.28h-3.11v-19h10.5l.5,2.44H760v5.85h6.1Z"/><path d="M771.17,159.32v-19h11l.45,2.44h-8.37v5.68h6.38l.45,2.52h-6.83v6h9.1l.47,2.43Z"/></svg>