<svg id="Layer_1" data-name="Layer 1" xmlns="http://www.w3.org/2000/svg" viewBox="0 0 626 125"><defs><style>.cls-1{fill:#f99f6f;}.cls-2{fill:#fff;}</style></defs><circle class="cls-1" cx="75.06" cy="110.48" r="4"/><circle class="cls-1" cx="550.78" cy="110.48" r="4"/><path class="cls-2" d="M39.73,41.45c-.56,3-2.52,10.43-3.15,12.32H1.85V51.18c6.16-.42,6.72-.91,6.72-6.79V17.72c0-5.89-.7-6.45-5.95-6.87V8.26H24.46v2.59c-5.46.5-6.16,1-6.16,6.87V44.88c0,3.85.14,5.6,4,5.67.14.07,3.36.07,3.64.07,4,0,5.05-.84,6.73-2.73a29.21,29.21,0,0,0,4.41-7.28Z"/><path class="cls-2" d="M88,41.87c-.35,1.89-2.31,9.94-2.94,11.9H48.68V51.25c6.37-.63,6.79-1,6.79-6.86V17.65c0-5.95-.84-6.38-5.6-6.8V8.26H72.62c7.36,0,9.81-.07,10.79-.14.07,1.26.42,7,.7,11.35l-2.73.35c-.63-2.38-1.82-5.25-3-6.51s-2.16-1.82-5.74-1.82H68.07c-2.66,0-2.94.13-2.94,2.52V28.64H72c3.92,0,4.62-1.05,5.68-6H80.4V38.23H77.67c-1.12-5.18-1.68-6-5.75-6H65.13v12c0,4.83.14,6.3,4.48,6.37h5c3.93,0,5-.49,6.52-2.38a31.26,31.26,0,0,0,4.27-7Z"/><path class="cls-2" d="M136.39,53.77V51.18c5.33-.56,5.68-1,5.68-7.35L142,16.53c-5,12-10.57,25.34-15.61,37.24h-2.31c-4.55-11.41-9.52-24.43-14.56-36.68-.91,22-.91,26.32-.91,28.84.07,3.78,1.47,4.76,6.72,5.25v2.59H98V51.18c4-.35,5.81-1.12,6.37-5.32.28-2.1.56-6.09,2.17-29.19.21-3.36-.28-5.25-6.3-5.82V8.26h15.12l13.51,30.88L142.42,8.26h14.77v2.59c-5.6.57-6.23,1.13-6.09,6.73l.56,26.25c.07,6.3.35,6.58,6,7.35v2.59Z"/><path class="cls-2" d="M194.42,7.28c13,0,23.52,9.46,23.52,23.25,0,14.91-10.64,24.29-23.87,24.29-14,0-24.15-10.22-24.15-23.73C169.92,19.12,178.46,7.28,194.42,7.28Zm-1,3.09c-7.14,0-12.39,7-12.39,19.39,0,11.83,4.69,22,14.14,22,6.65,0,11.83-6.44,11.83-19.25C207,18.63,201.49,10.37,193.37,10.37Z"/><path class="cls-2" d="M279.33,10.85c-4.27.57-5.6,1.48-5.81,4.63-.21,2.73-.42,5.11-.42,11.2V54.54h-3.92L240,19.54V35.36a106.31,106.31,0,0,0,.35,10.85c.28,3.08,1.75,4.69,6.93,5v2.59H229.91V51.18c4-.35,5.74-1.4,6.16-4.69a94.14,94.14,0,0,0,.42-11.13V18.77c0-2.31-.14-3.85-1.47-5.67s-2.94-2-5.88-2.25V8.26h13.65l26.67,31V26.68c0-6.09-.07-8.4-.28-11-.21-3-1.33-4.48-7.14-4.84V8.26h17.29Z"/><path class="cls-2" d="M359.62,26.47c-4.62.42-5.25,1.33-7.7,4.55-2,2.52-4,5.11-6.16,8.12a91.08,91.08,0,0,1,12.53,14.77l-.35.84c-7,.07-11.34-1.61-12.25-2.45s-3.22-3.15-5.74-5.74c-4.41,5.67-8.68,8.19-13.72,8.19-9.8,0-14.56-6.93-14.56-13,0-5.88,3.15-8.4,10-12.53-2.8-2.73-4.83-5.81-4.83-10.08,0-6.3,5.39-11.77,12.81-11.77,7.14,0,11.76,4.42,11.76,10.16a7.15,7.15,0,0,1-3.08,5.95A66.81,66.81,0,0,1,332.67,27c2,1.61,6.09,5.39,11,10a39.73,39.73,0,0,0,3.57-5.88c1.47-3.08,1.33-4.2-3.78-4.69V23.81h16.17Zm-30,21.84a11.29,11.29,0,0,0,8.26-4,187.19,187.19,0,0,0-14.21-13.23c-2.31,2-3.15,4.13-3.15,7.42C320.49,45.16,324.9,48.31,329.59,48.31ZM329,10.23c-2.87,0-4.76,2.66-4.76,5.88,0,3.5,1.54,5.53,6.23,9.17a9.22,9.22,0,0,0,3.92-8.12C334.42,13.59,332.74,10.23,329,10.23Z"/><path class="cls-2" d="M429.48,41.45c-.56,3-2.52,10.43-3.15,12.32H391.61V51.18c6.16-.42,6.72-.91,6.72-6.79V17.72c0-5.89-.7-6.45-5.95-6.87V8.26h21.84v2.59c-5.46.5-6.16,1-6.16,6.87V44.88c0,3.85.14,5.6,4,5.67.14.07,3.36.07,3.64.07,4,0,5-.84,6.72-2.73a29.21,29.21,0,0,0,4.41-7.28Z"/><path class="cls-2" d="M439.28,53.77V51.18c5.32-.49,6-.91,6-6.79V17.72c0-5.89-.7-6.45-6-6.87V8.26h21.63v2.59c-5.25.5-6,1-6,6.87V44.39c0,5.81.63,6.23,6,6.79v2.59Z"/><path class="cls-2" d="M510.4,53.77V51.18c5.32-.56,5.67-1,5.67-7.35L516,16.53c-5,12-10.57,25.34-15.61,37.24h-2.31c-4.55-11.41-9.52-24.43-14.56-36.68-.91,22-.91,26.32-.91,28.84.07,3.78,1.47,4.76,6.72,5.25v2.59H472V51.18c4-.35,5.81-1.12,6.37-5.32.28-2.1.56-6.09,2.17-29.19.21-3.36-.28-5.25-6.3-5.82V8.26h15.12l13.51,30.88L516.42,8.26h14.77v2.59c-5.6.57-6.23,1.13-6.09,6.73l.56,26.25c.07,6.3.35,6.58,6,7.35v2.59Z"/><path class="cls-2" d="M581.8,41.87c-.35,1.89-2.31,9.94-2.94,11.9H542.52V51.25c6.38-.63,6.8-1,6.8-6.86V17.65c0-5.95-.85-6.38-5.61-6.8V8.26h22.76c7.35,0,9.8-.07,10.78-.14.07,1.26.42,7,.7,11.35l-2.73.35c-.63-2.38-1.82-5.25-3-6.51s-2.17-1.82-5.74-1.82h-4.55c-2.66,0-2.94.13-2.94,2.52V28.64h6.86c3.92,0,4.62-1.05,5.67-6h2.73V38.23h-2.73c-1.12-5.18-1.68-6-5.74-6H559v12c0,4.83.14,6.3,4.48,6.37h5c3.92,0,5-.49,6.51-2.38a31.26,31.26,0,0,0,4.27-7Z"/><path class="cls-2" d="M619.67,19.82c-1.4-4.48-3.36-9.59-9.81-9.59A6.45,6.45,0,0,0,603.14,17c0,3.85,2.6,6.16,8.76,9.24,7.49,3.71,12.25,7.35,12.25,14.28,0,8.26-6.86,14.28-16.88,14.28a40.48,40.48,0,0,1-11.76-2.17c-.42-1.61-1.61-8.89-2.1-12.18l2.73-.63c1.4,4.41,5.32,12,12.19,12,4.26,0,6.86-2.66,6.86-7.14,0-4.06-2.52-6.44-8.41-9.59-7.27-3.92-12-7.42-12-14.7S600.48,7.28,611,7.28a51.75,51.75,0,0,1,10,1.26c.28,2.6.77,6.24,1.33,10.65Z"/><path class="cls-2" d="M114,105h-5.15v13h-2.48V105h-4.71V103h12Z"/><path class="cls-2" d="M125.45,118v-6.51h-6.31V118H116.7V103l2.44-.11v6.58h6.31V103h2.44v15Z"/><path class="cls-2" d="M132.32,118V103H141l.36,1.91h-6.58v4.47h5l.36,2h-5.37v4.69h7.15l.37,1.91Z"/><path class="cls-2" d="M156.93,103l5.81,14.81-2.46.33-1.45-4h-5.92L151.52,118h-2.46l5.72-15Zm-1.12,3.34-2.2,5.86h4.45Z"/><path class="cls-2" d="M169.91,103a8.82,8.82,0,0,1,3,.47,4.44,4.44,0,0,1,2.08,1.48,4.12,4.12,0,0,1,.76,2.58A4,4,0,0,1,175,110a4.57,4.57,0,0,1-1.84,1.51l3.69,6.51h-2.64l-3.25-5.87-.66,0h-2.38V118h-2.44V103Zm-2,2.09v5h1.94a5,5,0,0,0,1.67-.26,2.6,2.6,0,0,0,1.16-.78,2.15,2.15,0,0,0,.44-1.45,2.7,2.7,0,0,0-.38-1.51,2.06,2.06,0,0,0-1.12-.79,6,6,0,0,0-1.73-.23Z"/><path class="cls-2" d="M190.15,105H185v13h-2.49V105h-4.71V103h12Z"/><path class="cls-2" d="M204.59,103l5.8,14.81-2.46.33-1.45-4h-5.92L199.17,118h-2.46l5.72-15Zm-1.13,3.34-2.2,5.86h4.45Z"/><path class="cls-2" d="M213.1,118V103h2.33l6.34,9.06,1,1.5V103h2.51v15h-2.38l-6.64-9.5-.73-1.1V118Z"/><path class="cls-2" d="M229.69,118V103h5.52a6.85,6.85,0,0,1,3.82,1,5.86,5.86,0,0,1,2.22,2.64,10.21,10.21,0,0,1-.06,7.73,6,6,0,0,1-2.31,2.65,7,7,0,0,1-3.72,1Zm2.44-12.87v10.78h3a4.29,4.29,0,0,0,2.28-.58,3.86,3.86,0,0,0,1.5-1.8,7.38,7.38,0,0,0,.55-3.08,7.92,7.92,0,0,0-.45-2.81,4,4,0,0,0-1.35-1.85,3.85,3.85,0,0,0-2.33-.66Z"/><path class="cls-2" d="M250.59,115.1c.29.13.64.28,1,.44a8.49,8.49,0,0,0,1.32.4,5.41,5.41,0,0,0,1.34.17,5.24,5.24,0,0,0,1.67-.22,2.05,2.05,0,0,0,1-.67,1.69,1.69,0,0,0,.34-1,1.5,1.5,0,0,0-.45-1.1,5.51,5.51,0,0,0-1.2-.9c-.5-.28-1.07-.58-1.72-.89s-1.13-.61-1.64-.92a7.78,7.78,0,0,1-1.33-1,4.43,4.43,0,0,1-.88-1.23,3.73,3.73,0,0,1-.31-1.53,3.55,3.55,0,0,1,.6-2,4.05,4.05,0,0,1,1.72-1.41,6.57,6.57,0,0,1,2.7-.51,7.47,7.47,0,0,1,2.2.33,13.41,13.41,0,0,1,1.89.72l-.81,2c-.28-.14-.58-.28-.89-.41a7.08,7.08,0,0,0-1-.31,5.28,5.28,0,0,0-1.24-.14,3.67,3.67,0,0,0-1.87.44,1.45,1.45,0,0,0-.75,1.32,1.75,1.75,0,0,0,.41,1.14,3.76,3.76,0,0,0,1.17.9l1.79,1c.57.27,1.11.56,1.61.86a8.36,8.36,0,0,1,1.33,1,4.19,4.19,0,0,1,.91,1.21,3.51,3.51,0,0,1,.33,1.56,3.59,3.59,0,0,1-.65,2.09,4.36,4.36,0,0,1-1.86,1.45,7.55,7.55,0,0,1-3,.53,6.58,6.58,0,0,1-1.08-.11l-1.26-.27a8.32,8.32,0,0,1-1.16-.37,3.41,3.41,0,0,1-.79-.44Z"/><path class="cls-2" d="M269,118.29a7.13,7.13,0,0,1-3.81-1,6.77,6.77,0,0,1-2.5-2.77,9.27,9.27,0,0,1,0-8,7.1,7.1,0,0,1,6.29-3.87,7.07,7.07,0,0,1,3.83,1,6.88,6.88,0,0,1,2.52,2.77,9.2,9.2,0,0,1,0,8,7.3,7.3,0,0,1-2.56,2.78A7.18,7.18,0,0,1,269,118.29Zm0-2.09a4.22,4.22,0,0,0,2.41-.71,4.93,4.93,0,0,0,1.66-2,7.08,7.08,0,0,0,.61-3.1,7,7,0,0,0-.57-2.91,4.68,4.68,0,0,0-1.6-2,4.08,4.08,0,0,0-2.42-.73,4.14,4.14,0,0,0-2.38.74,5,5,0,0,0-1.7,2,6.76,6.76,0,0,0-.63,3,7,7,0,0,0,.58,2.94,4.7,4.7,0,0,0,1.62,2A4.12,4.12,0,0,0,269,116.2Z"/><path class="cls-2" d="M281.83,112.39a4.45,4.45,0,0,0,.45,2.09,3.08,3.08,0,0,0,1.25,1.3,3.77,3.77,0,0,0,1.82.44,3.61,3.61,0,0,0,1.82-.45,3.06,3.06,0,0,0,1.23-1.31,4.4,4.4,0,0,0,.44-2.07V103h2.51v9.57a5.57,5.57,0,0,1-.75,2.88,5.34,5.34,0,0,1-2.07,2,7.18,7.18,0,0,1-6.35,0,5.21,5.21,0,0,1-2.08-2,5.62,5.62,0,0,1-.74-2.89V103h2.47Z"/><path class="cls-2" d="M305,118h-9.46V103H298v13h6.71Z"/><path class="cls-2" d="M319.36,118.29a7.13,7.13,0,0,1-3.81-1,6.86,6.86,0,0,1-2.51-2.77,8.66,8.66,0,0,1-.88-3.92,8.52,8.52,0,0,1,.93-4,7.25,7.25,0,0,1,10.12-2.85,7,7,0,0,1,2.52,2.77,9.16,9.16,0,0,1-.05,8,7.06,7.06,0,0,1-6.32,3.85Zm0-2.09a4.19,4.19,0,0,0,2.4-.71,5,5,0,0,0,1.67-2,7.08,7.08,0,0,0,.61-3.1,7,7,0,0,0-.57-2.91,4.7,4.7,0,0,0-1.61-2,4.05,4.05,0,0,0-2.42-.73,4.13,4.13,0,0,0-2.37.74,5.07,5.07,0,0,0-1.71,2,6.76,6.76,0,0,0-.62,3,7,7,0,0,0,.58,2.94,4.7,4.7,0,0,0,1.62,2A4.1,4.1,0,0,0,319.34,116.2Z"/><path class="cls-2" d="M337.51,111.47h-5.13V118h-2.44V103h8.25l.4,1.91h-6.21v4.6h4.8Z"/><path class="cls-2" d="M347.05,118V103h8.67l.36,1.91H349.5v4.47h5l.36,2H349.5v4.69h7.15L357,118Z"/><path class="cls-2" d="M366.11,103l5.8,14.81-2.46.33-1.45-4h-5.92L360.7,118h-2.47L364,103ZM365,106.36l-2.19,5.86h4.44Z"/><path class="cls-2" d="M385.25,105H380.1v13h-2.49V105H372.9V103h12Z"/><path class="cls-2" d="M388,118V103h2.44v15Z"/><path class="cls-2" d="M394.82,118V103h2.33l6.33,9.06,1,1.5V103H407v15h-2.37l-6.65-9.5-.72-1.1V118Z"/><path class="cls-2" d="M417,110h5.24v7.24a6.5,6.5,0,0,1-1.24.55,10,10,0,0,1-1.55.38,9.74,9.74,0,0,1-1.72.15,7.39,7.39,0,0,1-4-1,6.71,6.71,0,0,1-2.56-2.77,8.95,8.95,0,0,1-.32-7.08,7.39,7.39,0,0,1,1.62-2.5,7.65,7.65,0,0,1,2.47-1.63,8.12,8.12,0,0,1,3.08-.57,9.56,9.56,0,0,1,1.15.09,10.1,10.1,0,0,1,1.47.3,6.47,6.47,0,0,1,1.34.54l-.77,1.78c-.38-.13-.73-.24-1-.32s-.62-.15-.93-.2a7.71,7.71,0,0,0-1.18-.08,5.46,5.46,0,0,0-2,.36,5,5,0,0,0-1.68,1.06,4.89,4.89,0,0,0-1.17,1.81,7.16,7.16,0,0,0-.41,2.52,6.78,6.78,0,0,0,.62,3,4.87,4.87,0,0,0,1.72,2,4.51,4.51,0,0,0,2.5.7,7.27,7.27,0,0,0,1.31-.1,7.8,7.8,0,0,0,1-.23v-4H416.8Z"/><path class="cls-2" d="M437.5,103l5.8,14.81-2.46.33-1.45-4h-5.92L432.08,118h-2.46l5.72-15Zm-1.13,3.34-2.2,5.86h4.45Z"/><path class="cls-2" d="M446,118V103h2.33l6.34,9.06,1,1.5V103h2.51v15h-2.38l-6.64-9.5-.73-1.1V118Z"/><path class="cls-2" d="M462.6,118V103h5.52a6.85,6.85,0,0,1,3.82,1,5.86,5.86,0,0,1,2.22,2.64,10.09,10.09,0,0,1-.06,7.73,5.92,5.92,0,0,1-2.31,2.65,7,7,0,0,1-3.71,1ZM465,105.11v10.78h3a4.29,4.29,0,0,0,2.28-.58,3.94,3.94,0,0,0,1.51-1.8,7.55,7.55,0,0,0,.55-3.08,7.7,7.7,0,0,0-.46-2.81,4,4,0,0,0-1.35-1.85,3.85,3.85,0,0,0-2.33-.66Z"/><path class="cls-2" d="M493.24,118h-9.46V103h2.44v13h6.72Z"/><path class="cls-2" d="M496,118V103h2.44v15Z"/><path class="cls-2" d="M510.4,111.47h-5.12V118h-2.44V103h8.25l.39,1.91h-6.2v4.6h4.79Z"/><path class="cls-2" d="M514.39,118V103h8.66l.35,1.91h-6.57v4.47h5l.36,2h-5.37v4.69H524l.37,1.91Z"/></svg>