<?xml version="1.0" encoding="UTF-8" standalone="no"?>
<!-- Created with Inkscape (http://www.inkscape.org/) -->

<svg
   xmlns:dc="http://purl.org/dc/elements/1.1/"
   xmlns:cc="http://creativecommons.org/ns#"
   xmlns:rdf="http://www.w3.org/1999/02/22-rdf-syntax-ns#"
   xmlns:svg="http://www.w3.org/2000/svg"
   xmlns="http://www.w3.org/2000/svg"
   xmlns:sodipodi="http://sodipodi.sourceforge.net/DTD/sodipodi-0.dtd"
   xmlns:inkscape="http://www.inkscape.org/namespaces/inkscape"
   id="svg2"
   version="1.1"
   inkscape:version="0.91 r13725"
   width="560.50848"
   height="726.37506"
   viewBox="0 0 560.50848 726.37506"
   sodipodi:docname="Anonymous2.svg">
  <metadata
     id="metadata8">
    <rdf:RDF>
      <cc:Work
         rdf:about="">
        <dc:format>image/svg+xml</dc:format>
        <dc:type
           rdf:resource="http://purl.org/dc/dcmitype/StillImage" />
        <dc:title></dc:title>
      </cc:Work>
    </rdf:RDF>
  </metadata>
  <defs
     id="defs6" />
  <sodipodi:namedview
     pagecolor="#ffffff"
     bordercolor="#666666"
     borderopacity="1"
     objecttolerance="10"
     gridtolerance="10"
     guidetolerance="10"
     inkscape:pageopacity="0"
     inkscape:pageshadow="2"
     inkscape:window-width="1680"
     inkscape:window-height="1027"
     id="namedview4"
     showgrid="false"
     inkscape:zoom="0.9262658"
     inkscape:cx="286.65648"
     inkscape:cy="293.79184"
     inkscape:window-x="-8"
     inkscape:window-y="-8"
     inkscape:window-maximized="1"
     inkscape:current-layer="svg2"
     fit-margin-top="0"
     fit-margin-left="0"
     fit-margin-right="0"
     fit-margin-bottom="0" />
  <path
     style="fill:none;stroke:#000000;stroke-opacity:1;stroke-width:10;stroke-miterlimit:4;stroke-dasharray:none"
     d="m 284.86754,715.7155 c 0,1.72913 19.43732,0.23315 26.71875,-2.0564 22.43693,-7.05499 53.83353,-27.49335 87.22273,-56.77969 29.49999,-25.87503 89.80474,-91.4518 104.21914,-113.33027 5.88342,-8.92998 16.18365,-30.63478 20.28068,-42.73577 13.13849,-38.80584 21.03346,-83.59465 25.61437,-145.3125 2.04095,-27.49734 2.33562,-105.57217 0.4989,-132.1875 C 543.34211,135.20995 531.251,77.204001 514.04621,53.601095 501.97303,37.037765 444.49038,22.260525 361.27379,14.327068 312.26976,9.6552678 283.76133,8.2810078 261.84285,9.5339618 148.0168,16.040745 71.50179,30.790375 49.64875,50.438135 18.56704,78.383261 0.31874,248.81646 13.97432,383.62559 20.1647,444.7375 31.38694,492.53386 47.14806,524.915 c 7.57195,15.55652 12.40632,22.68411 27.89851,41.13238 69.74761,83.05619 134.20502,137.0033 177.47722,148.53814 6.04203,1.61059 22.03125,2.57757 22.03125,1.33238 z"
     id="path4157" />
  <path
     style="fill:#000000;stroke:none;stroke-opacity:1;fill-opacity:1"
     d="m 270.93335,710.05852 c -12.11183,-17.85554 -17.72471,-38.18461 -18.59672,-67.35482 -0.59881,-20.03086 0.32543,-30.53885 4.09793,-46.59059 1.68923,-7.18754 2.27867,-11.91504 2.01058,-16.12531 -0.34604,-5.43444 -0.72805,-6.35101 -4.35806,-10.45627 -5.98893,-6.77302 -11.51812,-15.45073 -11.21104,-17.59504 0.32672,-2.28157 1.19488,-2.30258 22.4839,-0.54429 12.07463,0.99726 17.19917,0.9956 28.59375,-0.009 20.57223,-1.81422 21.32115,-1.78511 21.69331,0.84323 0.35024,2.47344 -4.48778,10.29947 -10.1941,16.4901 -1.99193,2.161 -4.06353,5.09117 -4.60353,6.51149 -1.50691,3.96348 -1.17393,10.7008 0.88462,17.89919 4.29307,15.01208 6.34742,39.7829 4.77094,57.5267 -2.14328,24.12323 -8.4655,44.52453 -18.34937,59.2119 -5.15546,0.94215 -8.35877,4.81253 -17.22221,0.19271 z"
     id="path4155" />
  <path
     style="fill:#000000;stroke:none;stroke-opacity:1;fill-opacity:1"
     d="M 155.45175,587.29746 C 116.55146,546.88942 86.426508,505.2367 64.54071,461.59791 51.40235,435.40091 40.05768,404.888 36.9881,387.49169 l -0.55849,-3.16516 4.5551,4.41879 c 8.32632,8.07718 18.74359,13.67172 30.85773,16.57199 11.352848,2.71802 30.1377,2.06648 43.80635,-1.5194 16.35569,-4.29081 34.61544,-12.37359 51.3796,-22.74347 l 8.4551,-5.23012 2.6411,2.9559 c 3.54252,3.96477 4.22073,7.12206 2.36556,11.01239 -4.05064,8.4943 -54.1693,25.70798 -74.85032,25.70798 -2.62192,0 -4.52229,0.42682 -4.52229,1.01568 0,0.55863 4.11328,8.481 9.14063,17.60527 5.02734,9.12429 10.40237,19.10863 11.94452,22.18745 1.54214,3.07882 4.91714,7.77032 7.5,10.42557 l 4.6961,4.82771 27.67355,0.67274 c 31.41205,0.7636 34.48302,0.37184 46.2316,-5.89771 7.51597,-4.01086 20.19803,-15.94275 27.2166,-25.60669 l 4.48556,-6.17622 3.44635,1.69286 c 13.1887,6.47837 58.40826,6.47038 71.60574,-0.0127 l 3.4719,-1.70551 5.68169,7.32988 c 13.06903,16.86021 25.1416,26.08234 38.6867,29.55243 4.9982,1.28049 9.72713,1.39342 33.67929,0.8043 l 27.86465,-0.68534 4.65574,-4.6802 c 2.56065,-2.57413 6.04848,-7.4816 7.75073,-10.90552 1.70225,-3.42392 7.22625,-13.73199 12.27557,-22.90685 5.04932,-9.17484 9.18058,-16.81161 9.18058,-16.9706 0,-0.15898 -3.69141,-0.53298 -8.20313,-0.8311 -10.32466,-0.68222 -22.82961,-3.45264 -37.26562,-8.25602 -13.03035,-4.33567 -31.04946,-12.76048 -33.70313,-15.75784 -2.98119,-3.36731 -2.40748,-8.01728 1.46724,-11.89199 l 3.29536,-3.29536 8.37651,5.28696 c 18.0314,11.38079 42.35757,21.2591 59.82745,24.29458 9.71902,1.68873 24.13175,1.87944 32.04876,0.42407 12.24373,-2.25074 25.34548,-9.02549 34.85968,-18.02551 1.67579,-1.58521 3.04688,-2.40608 3.04688,-1.82416 0,3.02125 -6.10276,24.04599 -10.16982,35.03625 -21.34968,57.69243 -58.7375,114.97695 -107.28196,164.3743 l -14.79553,15.05548 16.75661,-25.3125 c 25.77644,-38.93784 42.39245,-66.37951 41.02249,-67.74946 -0.2523,-0.2523 -2.64546,1.50732 -5.31812,3.91028 -10.63463,9.56144 -30.08714,20.69276 -44.21956,25.30377 -7.47168,2.43779 -22.23145,5.57931 -22.93023,4.88055 -0.21472,-0.21474 2.06664,-1.07644 5.06973,-1.91491 26.09576,-7.286 54.38997,-25.67709 73.03648,-47.47333 5.92203,-6.92236 8.04599,-10.77537 24.4206,-44.30059 9.86393,-20.19534 17.81498,-36.85371 17.66897,-37.01858 -0.65862,-0.74376 -7.80593,3.69497 -9.07581,5.63639 -0.77828,1.18986 -7.64311,13.55401 -15.25516,27.47588 -18.3229,33.51119 -20.75977,37.62397 -25.05123,42.27967 -5.06689,5.49692 -12.48319,10.39814 -20.08441,13.27319 l -6.4493,2.43934 -48.40686,0.19454 -48.40686,0.19454 -11.59314,-13.58062 c -6.37622,-7.46934 -14.20704,-17.23014 -17.40181,-21.69065 -6.4925,-9.0648 -8.27616,-9.95805 -17.79668,-8.91254 -4.62886,0.50832 -5.01093,0.76752 -8.19067,5.55655 -4.08997,6.15995 -17.4844,22.90227 -25.54547,31.93049 l -5.96844,6.6845 -48.03253,-0.21719 c -42.67385,-0.19296 -48.60779,-0.39938 -53.18879,-1.85025 -9.95898,-3.15414 -18.79013,-9.50776 -25.51478,-18.35675 -1.38146,-1.81784 -9.21289,-15.52878 -17.403202,-30.46875 C 70.71651,412.83909 71.72333,414.46261 67.73385,412.52209 c -1.92423,-0.93596 -3.68609,-1.51426 -3.91524,-1.28511 -0.22914,0.22915 7.73925,17.13664 17.70755,37.57222 l 18.124158,37.15559 9.296582,9.81018 c 15.52,16.37742 29.7847,26.97791 47.80426,35.52467 5.75307,2.72871 13.62419,5.88007 17.49138,7.00303 9.77829,2.83945 9.6997,2.81067 9.15642,3.35395 -0.80755,0.80756 -17.57636,-3.02316 -25.09392,-5.73253 -13.80623,-4.97583 -29.22373,-13.89587 -41.01563,-23.73022 -3.22265,-2.68767 -5.85937,-4.37994 -5.85937,-3.7606 0,3.14348 16.88742,30.8029 40.28005,65.97353 17.69872,26.60988 17.16567,25.78125 16.58471,25.78125 -0.23838,0 -6.01775,-5.80078 -12.84305,-12.89063 z"
     id="path4153" />
  <path
     style="fill:#000000;stroke:none;stroke-opacity:1;fill-opacity:1"
     d="M 279.28125 508.3125 C 229.63028 508.3125 216.17267 508.34507 212.08594 509.10156 C 211.22373 509.20261 210.71103 509.31241 210.58594 509.4375 C 209.80516 510.21827 209.43119 510.904 209.51172 511.53516 C 209.4452 512.05388 209.66915 512.4465 210.20898 512.89453 C 210.87027 513.44334 212.70288 514.08581 215.23438 514.72852 C 215.28197 514.74141 215.32091 514.75467 215.36914 514.76758 C 215.37048 514.76792 215.3717 514.76724 215.37305 514.76758 C 217.36678 515.30107 219.90726 515.84971 223.05469 516.44531 C 223.33704 516.44814 223.61992 516.45573 223.90234 516.45898 C 226.62047 516.89662 229.49814 517.28565 232.36914 517.57227 C 248.0011 518.83741 263.74626 518.78414 279.50781 518.32227 C 295.26936 518.78414 311.01452 518.83741 326.64648 517.57227 C 329.51748 517.28565 332.3932 516.89662 335.11133 516.45898 C 335.3944 516.45572 335.67793 516.44814 335.96094 516.44531 C 339.10836 515.84971 341.64885 515.30107 343.64258 514.76758 C 343.69401 514.75467 343.73039 514.74143 343.78125 514.72852 C 346.31274 514.08581 348.14536 513.44334 348.80664 512.89453 C 349.34645 512.44653 349.5704 512.05384 349.50391 511.53516 C 349.5844 510.90403 349.21043 510.21824 348.42969 509.4375 C 348.3046 509.31241 347.7919 509.20261 346.92969 509.10156 C 342.84305 508.34506 329.38568 508.3125 279.73438 508.3125 C 279.55504 508.31249 279.46144 508.3125 279.28125 508.3125 z "
     id="path4151" />
  <path
     style="fill:#000000;stroke:#000000;stroke-opacity:1;fill-opacity:1"
     d="m 262.9675,431.92112 c -14.2056,-2.96059 -23.84532,-9.9237 -29.01603,-20.95931 -3.32484,-7.09603 -3.40296,-8.63404 -2.06712,-40.6956 0.40282,-9.66796 0.4072,-17.57812 0.01,-17.57812 -0.39746,0 -4.09184,2.42578 -8.20973,5.39062 -9.06198,6.52455 -21.77954,19.68376 -25.2858,26.16394 -5.3857,9.95372 -6.52356,20.77475 -3.05694,29.07154 1.98966,4.76192 0.32477,3.72709 -3.03154,-1.88429 -4.62684,-7.73556 -5.53266,-12.31229 -4.2197,-21.32047 0.65311,-4.48097 1.95667,-9.00176 3.1788,-11.02423 3.06131,-5.06602 13.75334,-19.06628 22.30746,-29.20961 13.61375,-16.14295 20.7506,-34.39803 26.28318,-67.22869 0.97411,-5.78046 2.25708,-16.53828 2.85103,-23.90625 1.6734,-20.75876 2.07318,-21.77901 3.95525,-10.09376 4.98826,30.97081 4.21807,77.3347 -2.12252,127.77094 -2.45388,19.51941 -2.39762,24.30274 0.35541,30.21483 3.9905,8.56952 12.42504,13.60162 26.07878,15.55873 18.47047,2.64753 36.89392,-3.55862 42.53809,-14.32946 3.24384,-6.19023 3.3775,-10.51028 0.93424,-30.19373 -6.10095,-49.15024 -7.20381,-96.56727 -2.91343,-125.26111 0.80073,-5.35522 1.45586,-10.29526 1.45586,-10.97788 0,-0.68261 0.33237,-1.24112 0.7386,-1.24112 0.40624,0 1.26218,6.57747 1.90208,14.61661 2.44234,30.68271 9.14079,60.45858 17.27477,76.78964 3.32619,6.67816 7.67141,12.94642 14.29744,20.625 8.21672,9.52193 18.34867,23.15256 20.78797,27.96629 3.15645,6.22895 4.0894,19.04312 1.78621,24.53371 -1.95372,4.65747 -6.20572,11.9876 -6.67909,11.51422 -0.19345,-0.19344 0.26562,-2.40298 1.02015,-4.91009 5.02445,-16.695 -4.3527,-34.63881 -27.02803,-51.71989 -9.27634,-6.98777 -9.46781,-7.07891 -10.3128,-4.90835 -0.94379,2.4243 -0.12435,27.44098 1.14723,35.02411 1.67169,9.96914 -2.03355,22.81051 -8.71592,30.2071 -3.79518,4.20081 -11.65445,8.68374 -19.34361,11.0336 -7.17443,2.19256 -28.34531,2.74397 -36.90004,0.96108 z"
     id="path4149" />
  <path
     style="fill:#000000;stroke:#000000;stroke-opacity:1;fill-opacity:1"
     d="m 218.69986,425.45264 c -2.61879,-1.21942 -5.67739,-3.38156 -6.79688,-4.80477 -3.88247,-4.93576 -2.14737,-7.95978 4.56711,-7.95978 5.46414,0 11.86498,3.2488 14.72557,7.4741 2.50715,3.70322 2.55266,4.13619 0.63616,6.05268 -2.11898,2.11899 -7.63152,1.79902 -13.13196,-0.76223 z"
     id="path4147" />
  <path
     style="fill:#000000;stroke:#000000;stroke-opacity:1;fill-opacity:1"
     d="m 327.24254,426.56309 c -4.47257,-4.47257 5.73044,-13.875 15.0564,-13.875 7.12471,0 8.55096,4.40823 3.00245,9.27988 -5.82629,5.11555 -15.16273,7.49124 -18.05885,4.59512 z"
     id="path4145" />
  <path
     id="path4141"
     style="fill:#000000;stroke:#000000;stroke-opacity:1;fill-opacity:1"
     d="m 169.08629,283.335 c 11.18634,-2.30808 33.09843,-10.57574 34.63999,-13.07004 0.2514,-0.40677 -3.43195,0.1998 -8.1852,1.34795 -15.50682,3.74564 -30.09131,5.43221 -47.07979,5.44434 -17.80601,0.0127 -27.25003,-1.31812 -41.80036,-5.89041 -14.119702,-4.43696 -17.419162,-9.2334 -10.706582,-15.56418 7.853412,-7.40672 28.886312,-16.06025 44.467642,-18.29525 10.163,-1.4578 25.53169,-0.61103 35.08528,1.93308 4.04716,1.07775 11.21904,3.86235 15.9375,6.188 9.85502,4.85737 7.51656,2.48618 -3.60848,-3.65898 -16.48334,-9.10492 -30.02422,-13.01195 -45.46875,-13.11933 -9.68828,-0.0674 -11.5933,0.21049 -18.79141,2.74078 -4.40558,1.54865 -10.40845,4.40763 -13.33972,6.35329 -8.80793,5.84637 -21.630352,20.88096 -24.618412,28.86567 -1.12143,2.99667 16.437432,11.39655 32.160262,15.38498 17.38776,4.41077 34.28655,4.85214 51.30803,1.3401 z M 20.64582,303.90137 c 1.28066,-3.67369 9.66556,-11.02295 21.35034,-18.71328 14.09748,-9.27825 13.37354,-8.58227 8.35951,-8.03661 -5.11508,0.55666 -13.08381,3.90984 -19.05522,8.01827 -2.33497,1.6065 -4.24541,2.52111 -4.24541,2.03245 0,-1.53547 10.43923,-10.5071 15.64335,-13.44412 2.73991,-1.54631 4.98165,-2.98096 4.98165,-3.1881 0,-0.20714 -1.89811,-2.95502 -4.21802,-6.1064 -5.17634,-7.03156 -10.51285,-17.83735 -11.29413,-22.86924 -0.54214,-3.49178 -0.26631,-3.20822 4.00582,4.11794 2.52343,4.32736 6.77777,10.30646 9.45408,13.28688 10.69822,11.91383 16.50316,9.82342 41.185118,-14.83117 23.048402,-23.02283 34.150542,-27.12388 61.697402,-22.79055 49.5491,7.79445 69.29095,18.26474 73.1069,38.77297 3.08826,16.59733 -26.21285,32.05076 -67.02082,35.34684 -25.42972,2.05397 -50.46471,-2.12076 -70.608382,-11.77436 -5.651008,-2.70817 -7.753518,-3.2223 -13.177448,-3.2223 -8.53583,0 -16.38391,2.11656 -25.20124,6.79656 -6.92941,3.67794 -23.24178,16.70497 -23.24178,18.56085 0,0.49093 -0.61086,0.89259 -1.35748,0.89259 -1.10508,0 -1.1728,-0.52977 -0.36424,-2.84922 z" />
  <path
     id="path4137"
     style="fill:#000000;stroke:none;stroke-opacity:1;fill-opacity:1"
     d="m 433.90274,283.62135 c 10.32787,-2.07498 21.09912,-5.66488 29.42991,-9.80858 12.04169,-5.98948 11.54044,-5.03192 6.72367,-12.8445 -5.63961,-9.14717 -11.10763,-15.44425 -17.82845,-20.5316 -20.99205,-15.88999 -46.08799,-16.10127 -77.04128,-0.64863 -6.78547,3.38747 -13.03791,6.9333 -13.89431,7.87962 -0.94964,1.04935 1.1245,0.31541 5.31667,-1.88129 21.85025,-11.44956 49.78513,-12.30226 74.64368,-2.27848 14.10157,5.68621 23.46543,12.08815 24.97874,17.07761 2.09602,6.91075 -20.53617,14.78251 -47.77008,16.61503 -14.50254,0.97586 -40.0051,-1.71687 -56.95313,-6.01348 -3.48046,-0.88235 -6.32812,-1.34503 -6.32812,-1.02817 0,0.79155 9.33678,5.30306 16.74834,8.09277 19.82102,7.46061 42.00164,9.38242 61.97436,5.3697 z m 97.20302,16.92724 c -13.23112,-12.65721 -26.24874,-19.01596 -40.56278,-19.81383 l -8.5433,-0.4762 -9.53338,4.36994 c -17.56647,8.05217 -33.96315,11.23288 -57.28626,11.11263 -31.17259,-0.16069 -59.73567,-8.44166 -72.35928,-20.97828 -6.33236,-6.28874 -7.27736,-14.58591 -2.67754,-23.50894 7.43586,-14.42455 26.02108,-22.56448 67.06807,-29.37443 31.19702,-5.17577 39.40744,-2.21467 66.55438,24.00303 15.76808,15.22834 23.05837,20.56331 28.08281,20.55078 5.59283,-0.014 14.31825,-8.9628 21.04066,-21.5794 2.19153,-4.11307 4.15547,-7.4783 4.36432,-7.4783 0.68986,0 -0.754,6.01554 -2.58774,10.78125 -2.13237,5.54182 -9.18849,17.15607 -11.93071,19.63776 -1.06149,0.96062 -1.92997,2.07348 -1.92997,2.47302 0,0.39954 1.99639,1.70525 4.43642,2.90158 2.44002,1.19632 7.39705,5.06871 11.01562,8.60528 4.72949,4.62235 5.6567,5.86381 3.29796,4.41576 -10.12981,-6.2188 -19.36131,-9.88507 -23.40641,-9.29579 -1.85799,0.27066 -1.06865,1.01457 4.72869,4.4566 14.12314,8.38526 28.05272,20.28873 28.05272,23.97235 0,2.33379 -1.0864,1.6708 -7.82428,-4.77481 z" />
  <path
     style="fill:#000000;stroke:none;stroke-opacity:1;fill-opacity:1"
     d="m 225.76221,242.79771 c -8.54558,-11.62575 -28.97457,-32.9292 -40.58671,-42.32405 -33.83927,-27.37777 -70.46917,-39.87908 -106.32913,-36.28876 -8.68143,0.86918 -22.38518,3.77501 -33.70007,7.14595 -2.03294,0.60567 -2.02104,0.50092 0.76661,-6.74815 9.36422,-24.35085 24.25126,-41.98425 43.485878,-51.50813 10.23721,-5.06889 18.498942,-6.91119 31.089402,-6.9327 17.25192,-0.0294 33.54212,4.45057 54.16336,14.89572 11.0783,5.61142 33.84412,19.58487 33.10776,20.32123 -0.16451,0.16452 -4.85136,-1.14552 -10.4152,-2.91121 -12.61565,-4.00357 -30.31877,-8.40929 -41.38282,-10.29882 -9.14844,-1.56238 -28.46141,-2.96579 -27.58519,-2.00453 0.2969,0.32571 4.18683,1.22818 8.6443,2.0055 30.95436,5.398 64.04776,23.92984 89.54759,50.14542 6.13908,6.31139 6.80025,7.34352 6.31729,9.86166 -0.29666,1.54687 -1.32178,3.86719 -2.27804,5.15625 -1.4876,2.00536 -2.46738,2.33831 -6.78604,2.30608 -2.77607,-0.0207 -6.19323,-0.37926 -7.59368,-0.79676 l -2.54628,-0.7591 3.7552,8.76552 c 7.04323,16.44056 17.00767,47.78268 15.62948,49.16088 -0.17342,0.17342 -3.46009,-3.96299 -7.30371,-9.192 z"
     id="path4138" />
  <path
     id="path4159"
     d="m 333.14098,242.79771 c 8.54558,-11.62575 28.97457,-32.9292 40.58671,-42.32405 33.83927,-27.37777 70.46917,-39.87908 106.32913,-36.28876 8.68143,0.86918 22.38518,3.77501 33.70007,7.14595 2.03294,0.60567 2.02104,0.50092 -0.76661,-6.74815 -9.36422,-24.35085 -24.25126,-41.98425 -43.48588,-51.50813 -10.23721,-5.06889 -18.49894,-6.91119 -31.0894,-6.9327 -17.25192,-0.0294 -33.54212,4.45057 -54.16336,14.89572 -11.0783,5.61142 -33.84412,19.58487 -33.10776,20.32123 0.16451,0.16452 4.85136,-1.14552 10.4152,-2.91121 12.61565,-4.00357 30.31877,-8.40929 41.38282,-10.29882 9.14844,-1.56238 28.46141,-2.96579 27.58519,-2.00453 -0.2969,0.32571 -4.18683,1.22818 -8.6443,2.0055 -30.95436,5.398 -64.04776,23.92984 -89.54759,50.14542 -6.13908,6.31139 -6.80025,7.34352 -6.31729,9.86166 0.29666,1.54687 1.32178,3.86719 2.27804,5.15625 1.4876,2.00536 2.46738,2.33831 6.78604,2.30608 2.77607,-0.0207 6.19323,-0.37926 7.59368,-0.79676 l 2.54628,-0.7591 -3.7552,8.76552 c -7.04323,16.44056 -17.00767,47.78268 -15.62948,49.16088 0.17342,0.17342 3.46009,-3.96299 7.30371,-9.192 z"
     style="fill:#000000;stroke:none;stroke-opacity:1;fill-opacity:1"
     inkscape:connector-curvature="0" />
</svg>
